<svg xmlns="http://www.w3.org/2000/svg" width="15" height="15" viewBox="0 0 15 15">
  <path d="M15 11.8c0 .2 0 .5-.2.6l-2.1 2.1c-.1.1-.2.2-.4.3-.2.1-.3.2-.5.2h-.3c-.2 0-.5 0-1-.1s-1-.2-1.7-.5-1.4-.7-2.2-1.2c-.8-.5-1.7-1.3-2.6-2.2-.7-.7-1.4-1.4-1.8-2.1C1.7 8.2 1.3 7.6 1 7 .7 6.4.5 5.9.4 5.5.2 5 .1 4.6.1 4.3 0 3.9 0 3.7 0 3.5v-.3c0-.2.1-.3.2-.5s.2-.3.3-.4L2.6.2c.1-.1.3-.2.5-.2.1 0 .3 0 .4.1l.3.3 1.7 3.2v.6c0 .2-.1.4-.3.5l-.8.8s0 .1-.1.1v.1c0 .2.1.5.3.8.2.2.3.5.6.9s.6.8 1.1 1.3c.5.5.9.9 1.3 1.1.4.3.7.5.9.6.2.1.4.2.6.2h.3s.1 0 .1-.1l.9-.9c.2-.2.4-.3.7-.3.2 0 .3 0 .4.1l3.1 1.8c.2.2.4.4.4.6z"/>
</svg>
